# File created by Blade
# Date/Time:  Thu Sep 25 14:26:36 2014
# Frame Rate: 120.000 fps
#------------------------------------------------------
:FULLY-SPECIFIED
:DEGREES
1949
root 35.366288 22.199226 -3.273600 390.286992 51.984570 357.565901
Spine 19.215690 3.142911 -8.219168
Head -74.019180 -23.535229 42.627199
LeftShoulder 3.866390 -7.697721 22.102679
LeftArm 54.689084 15.384483 -51.516244
LeftForeArm 30.687175 -0.000000 62.277765
LeftHand -37.312095 -0.000000 -2.409641
LeftHandThumb1 -26.253704 0.000000 33.147579
RightShoulder -11.175722 14.957332 -15.567075
RightArm 164.533396 -146.634515 270.094238
RightForeArm -21.186331 -0.000000 72.753642
RightHand -0.598882 -0.000000 -0.439157
RightHandThumb1 -24.326973 -0.000000 -32.862282
LeftUpLeg -98.413765 1.468142 1.160620
LeftLeg 91.182148 -0.000000 -0.000000
LeftFoot -28.583025 -0.429857 -25.004720
LeftToeBase 1.676998 -0.000000 -0.000000
RightUpLeg -16.991806 4.081975 -28.009433
RightLeg 53.221161 -0.000000 -0.000000
RightFoot 56.388957 18.969034 32.856408
RightToeBase -69.785744 -0.000000 0.000000
1950
root 35.380344 22.409620 -3.462090 391.437025 51.461946 357.034317
Spine 16.961866 2.815507 -7.940865
Head -73.634558 -24.408477 42.776991
LeftShoulder 4.241035 -7.581598 22.166250
LeftArm 53.382977 15.392774 -51.887305
LeftForeArm 32.681186 -0.000000 65.292790
LeftHand -36.131060 -0.000000 -11.895842
LeftHandThumb1 -26.253704 0.000000 33.147579
RightShoulder -11.282094 14.331128 -16.186870
RightArm 164.436612 -146.181751 270.196947
RightForeArm -21.058171 -0.000000 73.847239
RightHand -0.299383 0.000000 0.492090
RightHandThumb1 -24.326973 -0.000000 -32.862282
LeftUpLeg -99.430071 1.500573 1.323126
LeftLeg 90.057430 -0.000000 -0.000000
LeftFoot -28.479297 0.462221 -25.013479
LeftToeBase 1.975067 -0.000000 -0.000000
RightUpLeg -18.826261 2.686027 -28.194048
RightLeg 53.310773 -0.000000 -0.000000
RightFoot 53.725483 18.462081 31.066636
RightToeBase -70.807023 -0.000000 0.000000
1951
root 35.392383 22.624193 -3.630711 392.613310 51.140398 356.442346
Spine 14.578653 2.354021 -7.485965
Head -73.165909 -25.280442 42.797876
LeftShoulder 4.929551 -7.754700 21.935836
LeftArm 55.538071 19.930187 -43.181592
LeftForeArm 12.461331 -0.000000 65.124284
LeftHand -36.134305 0.000000 26.320064
LeftHandThumb1 -26.253704 0.000000 33.147579
RightShoulder -11.461156 13.907837 -16.803671
RightArm 164.008648 -145.670006 270.399535
RightForeArm -20.320051 -0.000000 75.066784
RightHand -0.113980 -0.000000 1.321022
RightHandThumb1 -24.326973 -0.000000 -32.862282
LeftUpLeg -100.529231 1.436456 1.673910
LeftLeg 88.929577 -0.000000 -0.000000
LeftFoot -28.316444 1.446283 -24.880322
LeftToeBase 2.383165 -0.000000 -0.000000
RightUpLeg -20.716256 1.103738 -28.034252
RightLeg 53.566964 -0.000000 -0.000000
RightFoot 50.971298 17.517313 28.652631
RightToeBase -71.053083 -0.000000 0.000000
1952
root 37.044826 22.542185 -3.359864 386.629561 42.728484 364.560223
Spine 26.840199 9.626298 -17.703809
Head -75.163300 -21.048665 47.566844
LeftShoulder 5.001674 -8.502228 22.608454
LeftArm 55.896773 20.349377 -40.171701
LeftForeArm 7.476183 0.000000 67.078472
LeftHand -34.868642 -0.000000 32.769845
LeftHandThumb1 -26.253704 0.000000 33.147579
RightShoulder -11.759247 16.484432 -12.910232
RightArm 163.519987 -145.552735 269.472200
RightForeArm -20.603837 -0.000000 75.816041
RightHand 0.046132 -0.000000 2.152015
RightHandThumb1 -24.326973 -0.000000 -32.862282
LeftUpLeg -85.467476 2.118409 -4.833344
LeftLeg 92.576785 -0.000000 -0.000000
LeftFoot -36.649710 4.544936 -23.417021
LeftToeBase 12.214515 -0.000000 -0.000000
RightUpLeg -9.102256 7.051809 -38.199178
RightLeg 49.445188 -0.000000 -0.000000
RightFoot 47.853966 20.971464 22.107227
RightToeBase -10.622841 -0.000000 0.000000
1953
root 37.077198 22.775330 -3.436001 386.396689 42.356745 364.040032
Spine 26.545619 9.446699 -17.609295
Head -75.196602 -20.991818 48.197869
LeftShoulder 5.255981 -8.364040 22.687496
LeftArm 55.822753 21.167405 -39.072421
LeftForeArm 4.171193 -0.000000 69.350937
LeftHand -34.373587 0.000000 36.240443
LeftHandThumb1 -26.253704 0.000000 33.147579
RightShoulder -11.878760 15.928646 -12.744873
RightArm 164.244471 -145.197995 268.841016
RightForeArm -20.239058 -0.000000 76.992741
RightHand 0.071776 -0.000000 3.105879
RightHandThumb1 -24.326973 -0.000000 -32.862282
LeftUpLeg -84.992362 1.977550 -4.251278
LeftLeg 91.525149 -0.000000 -0.000000
LeftFoot -36.080778 4.264012 -24.719460
LeftToeBase 11.089967 -0.000000 -0.000000
RightUpLeg -9.610057 6.340026 -37.917587
RightLeg 49.917476 -0.000000 -0.000000
RightFoot 41.171663 21.488458 17.626250
RightToeBase 19.606942 -0.000000 -0.000000
1954
root 37.102263 23.007279 -3.508802 386.114306 41.957795 363.530615
Spine 26.298690 9.303622 -17.513497
Head -75.232896 -20.995533 48.749747
LeftShoulder 5.450146 -8.139473 22.760572
LeftArm 55.539358 21.779480 -38.514399
LeftForeArm 2.064491 -0.000000 71.815594
LeftHand -34.766867 0.000000 37.418083
LeftHandThumb1 -26.253704 0.000000 33.147579
RightShoulder -11.903170 16.213258 -12.852579
RightArm 163.748684 -145.050524 268.992915
RightForeArm -19.855547 -0.000000 78.280727
RightHand 0.100596 -0.000000 4.342565
RightHandThumb1 -24.326973 -0.000000 -32.862282
LeftUpLeg -84.460829 1.885281 -3.686615
LeftLeg 90.464194 -0.000000 -0.000000
LeftFoot -35.576395 4.182484 -25.777903
LeftToeBase 10.258338 -0.000000 -0.000000
RightUpLeg -10.095180 5.591367 -37.488952
RightLeg 50.420088 -0.000000 -0.000000
RightFoot 37.092776 20.599155 13.293639
RightToeBase 23.447326 -0.000000 -0.000000
1955
root 37.125497 23.236580 -3.583176 385.820185 41.601336 363.056497
Spine 26.085868 9.060760 -17.398613
Head -75.120252 -20.943141 49.129933
LeftShoulder 5.182710 -7.482910 23.035263
LeftArm 55.542730 22.042987 -37.774278
LeftForeArm 1.629089 -0.000000 74.196951
LeftHand -35.317766 -0.000000 33.846006
LeftHandThumb1 -26.253704 0.000000 33.147579
RightShoulder -11.956983 15.825152 -12.775689
RightArm 164.204168 -144.771512 268.546947
RightForeArm -19.128592 -0.000000 79.605658
RightHand -0.022952 -0.000000 5.911326
RightHandThumb1 -24.326973 -0.000000 -32.862282
LeftUpLeg -83.922971 1.762919 -3.194922
LeftLeg 89.416741 -0.000000 -0.000000
LeftFoot -35.722951 5.800038 -24.798966
LeftToeBase 12.415620 -0.000000 -0.000000
RightUpLeg -10.598997 4.789512 -36.997461
RightLeg 51.094224 -0.000000 -0.000000
RightFoot 34.485753 17.787874 10.411477
RightToeBase 17.181804 -0.000000 -0.000000
1956
root 37.142104 23.462299 -3.661846 385.595141 41.254820 362.611396
Spine 25.773997 8.804010 -17.272166
Head -75.269394 -20.983254 49.722383
LeftShoulder 4.894710 -6.578148 23.322356
LeftArm 55.233796 22.130047 -38.364878
LeftForeArm 1.743971 -0.000000 76.474077
LeftHand -35.809450 -0.000000 28.633981
LeftHandThumb1 -26.253704 0.000000 33.147579
RightShoulder -11.992274 15.857866 -12.862068
RightArm 163.976420 -144.519392 268.519249
RightForeArm -18.366832 -0.000000 80.960075
RightHand 0.017235 0.000000 7.306403
RightHandThumb1 -24.326973 -0.000000 -32.862282
LeftUpLeg -83.418683 1.581115 -2.653633
LeftLeg 88.320179 -0.000000 -0.000000
LeftFoot -35.541162 6.601406 -24.861921
LeftToeBase 13.091517 -0.000000 -0.000000
RightUpLeg -11.229304 3.982049 -36.495394
RightLeg 51.915023 -0.000000 -0.000000
RightFoot 32.737395 13.661997 9.142151
RightToeBase 12.428975 -0.000000 -0.000000
1957
root 37.020016 23.695679 -3.777064 385.529461 41.596500 361.247309
Spine 24.794275 7.830668 -15.990915
Head -75.135594 -21.345259 49.476860
LeftShoulder 4.644762 -5.900972 23.335424
LeftArm 54.989179 22.411115 -38.037321
LeftForeArm 1.444130 0.000000 78.787067
LeftHand -36.329171 -0.000000 23.821337
LeftHandThumb1 -26.253704 0.000000 33.147579
RightShoulder -11.981696 15.712773 -13.438105
RightArm 163.811189 -144.274380 268.578682
RightForeArm -17.779232 -0.000000 82.348130
RightHand 0.181281 0.000000 8.536599
RightHandThumb1 -24.326973 -0.000000 -32.862282
LeftUpLeg -83.877719 1.630341 -1.645242
LeftLeg 86.864162 -0.000000 -0.000000
LeftFoot -34.919978 7.333392 -24.568273
LeftToeBase 12.715848 -0.000000 -0.000000
RightUpLeg -12.765000 2.705692 -34.862477
RightLeg 53.337469 -0.000000 -0.000000
RightFoot 31.192493 8.282134 8.821928
RightToeBase 9.525261 -0.000000 -0.000000
1958
root 36.886595 23.942447 -3.879291 385.197259 41.965881 359.806335
Spine 24.140817 6.945022 -14.616471
Head -75.108455 -21.501420 49.196429
LeftShoulder 4.471447 -5.402536 23.361652
LeftArm 54.520253 22.530419 -38.193400
LeftForeArm 1.845892 -0.000000 80.892021
LeftHand -36.702525 -0.000000 18.356428
LeftHandThumb1 -26.253704 0.000000 33.147579
RightShoulder -11.977864 15.710789 -14.021878
RightArm 163.654600 -144.078220 268.630102
RightForeArm -17.433755 -0.000000 83.843534
RightHand 0.086088 -0.000000 9.928787
RightHandThumb1 -24.326973 -0.000000 -32.862282
LeftUpLeg -84.060386 1.797707 -0.613035
LeftLeg 85.295683 -0.000000 -0.000000
LeftFoot -33.963836 7.312701 -25.075989
LeftToeBase 10.773312 -0.000000 -0.000000
RightUpLeg -14.127722 1.793845 -33.031883
RightLeg 54.761117 -0.000000 -0.000000
RightFoot 29.804970 2.632939 10.401625
RightToeBase 5.315925 -0.000000 -0.000000
1959
root 36.739496 24.179476 -3.992771 385.109430 42.390561 358.337089
Spine 23.064294 5.941190 -13.166676
Head -74.932311 -21.871300 48.757709
LeftShoulder 4.290815 -4.704087 23.304892
LeftArm 54.033442 22.531085 -38.332523
LeftForeArm 3.180792 -0.000000 82.854593
LeftHand -36.346757 0.000000 12.609235
LeftHandThumb1 -26.253704 0.000000 33.147579
RightShoulder -12.066022 15.382572 -14.624449
RightArm 163.718890 -143.637307 268.566511
RightForeArm -16.602181 -0.000000 85.308171
RightHand 0.067448 -0.000000 10.819136
RightHandThumb1 -24.326973 -0.000000 -32.862282
LeftUpLeg -84.573140 1.939148 0.437563
LeftLeg 83.729116 -0.000000 -0.000000
LeftFoot -33.004944 7.538801 -25.312923
LeftToeBase 9.378016 -0.000000 -0.000000
RightUpLeg -15.851813 0.738907 -31.114165
RightLeg 56.514500 -0.000000 -0.000000
RightFoot 28.440274 -1.873877 12.664025
RightToeBase -5.637891 -0.000000 0.000000
1960
root 36.585717 24.418920 -4.109259 385.018418 42.779791 356.856556
Spine 21.942511 5.007788 -11.692357
Head -74.752949 -22.269614 48.268742
LeftShoulder 4.118508 -4.006802 23.272412
LeftArm 53.620527 22.871536 -38.054874
LeftForeArm 3.215222 -0.000000 84.986177
LeftHand -36.576511 -0.000000 8.701125
LeftHandThumb1 -26.253704 0.000000 33.147579
RightShoulder -12.113536 15.081431 -15.272152
RightArm 163.684785 -143.286276 268.588423
RightForeArm -16.037804 -0.000000 86.772582
RightHand 0.126960 0.000000 11.575400
RightHandThumb1 -24.326973 -0.000000 -32.862282
LeftUpLeg -85.092804 2.155284 1.433358
LeftLeg 82.111869 -0.000000 -0.000000
LeftFoot -32.069361 8.026954 -25.200511
LeftToeBase 8.365503 -0.000000 -0.000000
RightUpLeg -17.668194 -0.209561 -29.128145
RightLeg 58.328353 -0.000000 -0.000000
RightFoot 27.132789 -4.815418 13.740105
RightToeBase -15.634134 -0.000000 0.000000
